<svg xmlns="http://www.w3.org/2000/svg" xmlns:xlink="http://www.w3.org/1999/xlink" width="2000" zoomAndPan="magnify" viewBox="0 0 1500 1499.999933" height="2000" preserveAspectRatio="xMidYMid meet" version="1.0"><defs><clipPath id="f9e9f2c344"><path d="M 750 0 C 335.785156 0 0 335.785156 0 750 C 0 1164.214844 335.785156 1500 750 1500 C 1164.214844 1500 1500 1164.214844 1500 750 C 1500 335.785156 1164.214844 0 750 0 Z M 750 0 " clip-rule="nonzero"/></clipPath><clipPath id="559bf3b0c5"><path d="M 0 0 L 1500 0 L 1500 1500 L 0 1500 Z M 0 0 " clip-rule="nonzero"/></clipPath><clipPath id="15d71e5aff"><path d="M 750 0 C 335.785156 0 0 335.785156 0 750 C 0 1164.214844 335.785156 1500 750 1500 C 1164.214844 1500 1500 1164.214844 1500 750 C 1500 335.785156 1164.214844 0 750 0 Z M 750 0 " clip-rule="nonzero"/></clipPath><clipPath id="f20f151ae8"><rect x="0" width="1500" y="0" height="1500"/></clipPath><clipPath id="c4eeacdce4"><path d="M 693.375 388.089844 L 1396.773438 388.089844 L 1396.773438 1101.175781 L 693.375 1101.175781 Z M 693.375 388.089844 " clip-rule="nonzero"/></clipPath><clipPath id="79ad2764e2"><path d="M 103.214844 356.15625 L 818.742188 356.15625 L 818.742188 1101.175781 L 103.214844 1101.175781 Z M 103.214844 356.15625 " clip-rule="nonzero"/></clipPath></defs><g clip-path="url(#f9e9f2c344)"><g transform="matrix(1, 0, 0, 1, 0, 0.000000000000112861)"><g clip-path="url(#f20f151ae8)"><g clip-path="url(#559bf3b0c5)"><g clip-path="url(#15d71e5aff)"><rect x="-330" width="2160" fill="#ffffff" height="2159.999904" y="-329.999985" fill-opacity="1"/></g></g></g></g></g><path fill="#ff6200" d="M 691.449219 1005.753906 L 691.074219 1006.078125 L 691.632812 1004.6875 Z M 691.449219 1005.753906 " fill-opacity="1" fill-rule="evenodd"/><g clip-path="url(#c4eeacdce4)"><path fill="#000000" d="M 795.871094 470.707031 L 978.929688 470.707031 C 1002.96875 430.777344 1035.90625 402.960938 1076.070312 392.785156 C 1194.007812 362.902344 1329.589844 496.351562 1378.84375 690.78125 C 1428.097656 885.210938 1372.40625 1067.117188 1254.464844 1096.996094 C 1152.066406 1122.9375 1036.375 1025.726562 975.429688 872.398438 L 953.230469 872.398438 C 945.519531 906.992188 904.75 933.394531 855.625 933.394531 C 832.203125 933.394531 810.675781 927.390625 793.726562 917.355469 L 693.460938 1004.015625 L 915.359375 593.972656 L 757.199219 626.042969 L 795.871094 470.707031 " fill-opacity="1" fill-rule="evenodd"/></g><g clip-path="url(#79ad2764e2)"><path fill="#ff6200" d="M 521.0625 470.707031 L 637.601562 470.707031 L 818.214844 356.15625 L 601.378906 789.21875 L 759.542969 741.96875 C 740.558594 812.699219 725.515625 869.34375 714.433594 911.941406 C 696.523438 925.195312 671.742188 933.394531 644.359375 933.394531 C 595.230469 933.394531 554.464844 906.992188 546.75 872.398438 L 524.5625 872.398438 C 463.621094 1025.726562 347.921875 1122.9375 245.519531 1096.996094 C 127.582031 1067.117188 71.894531 885.210938 121.152344 690.78125 C 170.40625 496.351562 305.988281 362.902344 423.921875 392.785156 C 464.085938 402.960938 497.019531 430.777344 521.0625 470.707031 " fill-opacity="1" fill-rule="evenodd"/></g><path fill="#ffffff" d="M 333.863281 605.285156 C 355.921875 605.285156 373.96875 623.332031 373.96875 645.390625 L 373.96875 698.523438 L 427.101562 698.523438 C 449.160156 698.523438 467.207031 716.570312 467.207031 738.628906 C 467.207031 760.683594 449.160156 778.730469 427.101562 778.730469 L 373.96875 778.730469 L 373.96875 831.871094 C 373.96875 853.929688 355.921875 871.976562 333.863281 871.976562 C 311.804688 871.976562 293.757812 853.929688 293.757812 831.871094 L 293.757812 778.730469 L 240.621094 778.730469 C 218.5625 778.730469 200.515625 760.683594 200.515625 738.628906 C 200.515625 716.570312 218.5625 698.523438 240.621094 698.523438 L 293.757812 698.523438 L 293.757812 645.390625 C 293.757812 623.332031 311.804688 605.285156 333.863281 605.285156 " fill-opacity="1" fill-rule="evenodd"/><path fill="#ffffff" d="M 1121.78125 796.449219 L 1121.78125 810.9375 C 1121.402344 808.578125 1121.203125 806.160156 1121.203125 803.691406 C 1121.203125 801.226562 1121.402344 798.804688 1121.78125 796.449219 Z M 1121.78125 707.570312 L 1121.78125 722.050781 C 1118.320312 743.472656 1099.742188 759.828125 1077.351562 759.828125 C 1052.488281 759.828125 1032.328125 739.675781 1032.328125 714.808594 C 1032.328125 689.949219 1052.488281 669.792969 1077.351562 669.792969 C 1099.742188 669.792969 1118.320312 686.152344 1121.78125 707.570312 Z M 1121.78125 633.179688 C 1121.402344 630.820312 1121.203125 628.402344 1121.203125 625.9375 C 1121.203125 623.472656 1121.402344 621.054688 1121.78125 618.695312 Z M 1121.78125 722.050781 L 1121.78125 707.570312 C 1122.164062 709.925781 1122.367188 712.34375 1122.367188 714.808594 C 1122.367188 717.277344 1122.164062 719.695312 1121.78125 722.050781 Z M 1210.660156 796.492188 L 1210.660156 810.886719 C 1207.21875 832.324219 1188.632812 848.707031 1166.21875 848.707031 C 1143.820312 848.707031 1125.246094 832.347656 1121.78125 810.9375 L 1121.78125 796.449219 C 1125.246094 775.03125 1143.820312 758.671875 1166.21875 758.671875 C 1188.632812 758.671875 1207.21875 775.054688 1210.660156 796.492188 Z M 1210.660156 707.617188 L 1210.660156 722.003906 C 1210.28125 719.664062 1210.085938 717.261719 1210.085938 714.808594 C 1210.085938 712.363281 1210.28125 709.960938 1210.660156 707.617188 Z M 1166.21875 580.917969 C 1188.632812 580.917969 1207.21875 597.300781 1210.660156 618.742188 L 1210.660156 633.132812 C 1207.21875 654.570312 1188.632812 670.953125 1166.21875 670.953125 C 1143.820312 670.953125 1125.246094 654.59375 1121.78125 633.179688 L 1121.78125 618.695312 C 1125.246094 597.277344 1143.820312 580.917969 1166.21875 580.917969 Z M 1210.660156 722.003906 L 1210.660156 707.617188 C 1214.105469 686.179688 1232.6875 669.792969 1255.105469 669.792969 C 1279.964844 669.792969 1300.125 689.949219 1300.125 714.808594 C 1300.125 739.675781 1279.964844 759.828125 1255.105469 759.828125 C 1232.6875 759.828125 1214.105469 743.449219 1210.660156 722.003906 Z M 1210.660156 810.886719 L 1210.660156 796.492188 C 1211.039062 798.839844 1211.234375 801.242188 1211.234375 803.691406 C 1211.234375 806.140625 1211.039062 808.539062 1210.660156 810.886719 Z M 1210.660156 618.742188 C 1211.039062 621.085938 1211.234375 623.488281 1211.234375 625.9375 C 1211.234375 628.382812 1211.039062 630.785156 1210.660156 633.132812 L 1210.660156 618.742188 " fill-opacity="1" fill-rule="evenodd"/></svg>