<svg xmlns="http://www.w3.org/2000/svg" xmlns:xlink="http://www.w3.org/1999/xlink" width="1135" zoomAndPan="magnify" viewBox="0 0 851.25 561.000005" height="748" preserveAspectRatio="xMidYMid meet" version="1.0"><defs><g/><clipPath id="cf8a878755"><path d="M 387.753906 21.078125 L 849.371094 21.078125 L 849.371094 489.136719 L 387.753906 489.136719 Z M 387.753906 21.078125 " clip-rule="nonzero"/></clipPath><clipPath id="907b302207"><path d="M 0.382812 0.121094 L 470 0.121094 L 470 489.136719 L 0.382812 489.136719 Z M 0.382812 0.121094 " clip-rule="nonzero"/></clipPath><clipPath id="aaa98b429a"><rect x="0" width="512" y="0" height="180"/></clipPath><clipPath id="9321502fbd"><rect x="0" width="206" y="0" height="75"/></clipPath></defs><path fill="#ff6200" d="M 386.488281 426.503906 L 386.242188 426.714844 L 386.609375 425.804688 Z M 386.488281 426.503906 " fill-opacity="1" fill-rule="evenodd"/><g clip-path="url(#cf8a878755)"><path fill="#000000" d="M 455.027344 75.308594 L 575.183594 75.308594 C 590.960938 49.101562 612.582031 30.839844 638.945312 24.164062 C 716.355469 4.546875 805.351562 92.140625 837.679688 219.761719 C 870.007812 347.378906 833.453125 466.78125 756.039062 486.390625 C 688.824219 503.421875 612.890625 439.613281 572.886719 338.972656 L 558.316406 338.972656 C 553.253906 361.675781 526.496094 379.007812 494.25 379.007812 C 478.875 379.007812 464.746094 375.066406 453.621094 368.480469 L 387.808594 425.359375 L 533.457031 156.214844 L 429.644531 177.265625 L 455.027344 75.308594 " fill-opacity="1" fill-rule="evenodd"/></g><g clip-path="url(#907b302207)"><path fill="#ff6200" d="M 274.648438 75.308594 L 351.140625 75.308594 L 469.695312 0.121094 L 327.367188 284.371094 L 431.183594 253.359375 C 418.722656 299.785156 408.847656 336.964844 401.574219 364.925781 C 389.816406 373.625 373.550781 379.007812 355.578125 379.007812 C 323.332031 379.007812 296.574219 361.675781 291.511719 338.972656 L 276.949219 338.972656 C 236.945312 439.613281 161.003906 503.421875 93.789062 486.390625 C 16.378906 466.78125 -20.175781 347.378906 12.15625 219.761719 C 44.484375 92.140625 133.476562 4.546875 210.886719 24.164062 C 237.25 30.839844 258.867188 49.101562 274.648438 75.308594 " fill-opacity="1" fill-rule="evenodd"/></g><path fill="#ffffff" d="M 151.773438 163.644531 C 166.253906 163.644531 178.097656 175.488281 178.097656 189.96875 L 178.097656 224.84375 L 212.972656 224.84375 C 227.453125 224.84375 239.296875 236.6875 239.296875 251.167969 C 239.296875 265.644531 227.453125 277.488281 212.972656 277.488281 L 178.097656 277.488281 L 178.097656 312.371094 C 178.097656 326.847656 166.253906 338.695312 151.773438 338.695312 C 137.296875 338.695312 125.449219 326.847656 125.449219 312.371094 L 125.449219 277.488281 L 90.574219 277.488281 C 76.09375 277.488281 64.25 265.644531 64.25 251.167969 C 64.25 236.6875 76.09375 224.84375 90.574219 224.84375 L 125.449219 224.84375 L 125.449219 189.96875 C 125.449219 175.488281 137.296875 163.644531 151.773438 163.644531 " fill-opacity="1" fill-rule="evenodd"/><path fill="#ffffff" d="M 668.949219 289.117188 L 668.949219 298.628906 C 668.699219 297.082031 668.566406 295.492188 668.566406 293.871094 C 668.566406 292.253906 668.699219 290.667969 668.949219 289.117188 Z M 668.949219 230.78125 L 668.949219 240.285156 C 666.675781 254.347656 654.484375 265.082031 639.785156 265.082031 C 623.464844 265.082031 610.234375 251.855469 610.234375 235.535156 C 610.234375 219.214844 623.464844 205.984375 639.785156 205.984375 C 654.484375 205.984375 666.675781 216.722656 668.949219 230.78125 Z M 668.949219 181.953125 C 668.699219 180.40625 668.566406 178.816406 668.566406 177.199219 C 668.566406 175.582031 668.699219 173.992188 668.949219 172.445312 Z M 668.949219 240.285156 L 668.949219 230.78125 C 669.199219 232.328125 669.332031 233.914062 669.332031 235.535156 C 669.332031 237.152344 669.199219 238.738281 668.949219 240.285156 Z M 727.289062 289.148438 L 727.289062 298.59375 C 725.027344 312.667969 712.828125 323.421875 698.117188 323.421875 C 683.414062 323.421875 671.222656 312.683594 668.949219 298.628906 L 668.949219 289.117188 C 671.222656 275.058594 683.414062 264.324219 698.117188 264.324219 C 712.828125 264.324219 725.027344 275.074219 727.289062 289.148438 Z M 727.289062 230.8125 L 727.289062 240.257812 C 727.039062 238.71875 726.910156 237.140625 726.910156 235.535156 C 726.910156 233.925781 727.039062 232.347656 727.289062 230.8125 Z M 698.117188 147.648438 C 712.828125 147.648438 725.027344 158.402344 727.289062 172.476562 L 727.289062 181.921875 C 725.027344 195.992188 712.828125 206.746094 698.117188 206.746094 C 683.414062 206.746094 671.222656 196.007812 668.949219 181.953125 L 668.949219 172.445312 C 671.222656 158.386719 683.414062 147.648438 698.117188 147.648438 Z M 727.289062 240.257812 L 727.289062 230.8125 C 729.550781 216.738281 741.746094 205.984375 756.460938 205.984375 C 772.777344 205.984375 786.007812 219.214844 786.007812 235.535156 C 786.007812 251.855469 772.777344 265.082031 756.460938 265.082031 C 741.746094 265.082031 729.550781 254.332031 727.289062 240.257812 Z M 727.289062 298.59375 L 727.289062 289.148438 C 727.535156 290.6875 727.664062 292.265625 727.664062 293.871094 C 727.664062 295.480469 727.535156 297.054688 727.289062 298.59375 Z M 727.289062 172.476562 C 727.535156 174.015625 727.664062 175.59375 727.664062 177.199219 C 727.664062 178.804688 727.535156 180.382812 727.289062 181.921875 L 727.289062 172.476562 " fill-opacity="1" fill-rule="evenodd"/><g transform="matrix(1, 0, 0, 1, 171, 320)"><g clip-path="url(#aaa98b429a)"><g fill="#ffffff" fill-opacity="1"><g transform="translate(15.387975, 148.65586)"><g><path d="M 13.691406 19.535156 C 10.152344 19.535156 6.78125 18.867188 3.574219 17.539062 C 0.382812 16.210938 -2.460938 14.300781 -4.957031 11.804688 C -7.453125 9.308594 -9.367188 6.460938 -10.691406 3.269531 C -12.023438 0.0664062 -12.6875 -3.304688 -12.6875 -6.847656 L -12.6875 -23.8125 C -12.6875 -27.363281 -12.035156 -30.734375 -10.730469 -33.925781 C -9.355469 -37.285156 -7.34375 -40.242188 -4.695312 -42.792969 C -2.191406 -45.203125 0.644531 -47.042969 3.8125 -48.3125 C 6.949219 -49.566406 10.242188 -50.191406 13.691406 -50.191406 L 74.410156 -50.191406 C 72.929688 -50.191406 71.449219 -49.898438 69.96875 -49.316406 C 68.265625 -48.644531 66.78125 -47.675781 65.511719 -46.40625 C 64.289062 -45.1875 63.347656 -43.75 62.675781 -42.101562 C 62.039062 -40.539062 61.722656 -38.957031 61.722656 -37.355469 C 61.722656 -35.789062 62.027344 -34.246094 62.636719 -32.722656 C 63.257812 -31.164062 64.132812 -29.804688 65.253906 -28.640625 C 66.511719 -27.332031 68.007812 -26.324219 69.730469 -25.617188 C 71.28125 -24.984375 72.84375 -24.667969 74.410156 -24.667969 L 39.4375 -24.667969 C 29.707031 -24.667969 20.875 -26.949219 12.949219 -31.511719 C 5 -36.089844 -1.265625 -42.355469 -5.839844 -50.304688 C -10.40625 -58.230469 -12.6875 -67.0625 -12.6875 -76.792969 L -12.6875 -86.464844 C -12.6875 -96.328125 -10.390625 -105.207031 -5.796875 -113.105469 C -1.222656 -120.96875 5.027344 -127.183594 12.949219 -131.746094 C 20.875 -136.3125 29.707031 -138.59375 39.4375 -138.59375 L 112.957031 -138.59375 C 116.421875 -138.59375 119.714844 -137.980469 122.832031 -136.75 C 126.171875 -135.433594 129.121094 -133.496094 131.679688 -130.9375 C 134.242188 -128.375 136.179688 -125.425781 137.492188 -122.089844 C 138.722656 -118.96875 139.335938 -115.675781 139.335938 -112.214844 L 139.335938 -95.394531 C 139.335938 -91.945312 138.710938 -88.652344 137.457031 -85.519531 C 136.1875 -82.347656 134.347656 -79.511719 131.9375 -77.007812 C 129.386719 -74.359375 126.429688 -72.347656 123.070312 -70.972656 C 119.878906 -69.667969 116.511719 -69.015625 112.957031 -69.015625 L 52.089844 -69.015625 C 53.691406 -69.015625 55.273438 -69.332031 56.835938 -69.96875 C 58.484375 -70.636719 59.917969 -71.582031 61.140625 -72.800781 C 62.410156 -74.074219 63.378906 -75.558594 64.050781 -77.261719 C 64.632812 -78.742188 64.925781 -80.222656 64.925781 -81.703125 C 64.925781 -83.304688 64.609375 -84.886719 63.972656 -86.453125 C 63.304688 -88.101562 62.359375 -89.535156 61.140625 -90.753906 C 59.917969 -91.972656 58.484375 -92.917969 56.835938 -93.589844 C 55.273438 -94.222656 53.691406 -94.542969 52.089844 -94.542969 L 87.210938 -94.542969 C 97.070312 -94.542969 105.953125 -92.246094 113.847656 -87.652344 C 121.6875 -83.089844 127.886719 -76.890625 132.445312 -69.054688 C 137.039062 -61.15625 139.335938 -52.277344 139.335938 -42.414062 L 139.335938 -32.742188 C 139.335938 -23.039062 137.070312 -14.210938 132.53125 -6.25 C 127.96875 1.753906 121.742188 8.054688 113.847656 12.644531 C 105.953125 17.238281 97.070312 19.535156 87.210938 19.535156 Z M 13.691406 -19.535156 L 87.210938 -19.535156 C 90.046875 -19.535156 92.378906 -20.066406 94.207031 -21.128906 C 96.039062 -22.191406 97.5 -23.683594 98.589844 -25.597656 C 99.710938 -27.558594 100.269531 -29.941406 100.269531 -32.742188 L 100.269531 -42.414062 C 100.269531 -45.253906 99.738281 -47.585938 98.675781 -49.410156 C 97.578125 -51.292969 96.089844 -52.785156 94.207031 -53.878906 C 92.378906 -54.941406 90.046875 -55.472656 87.210938 -55.472656 L 52.089844 -55.472656 C 48.601562 -55.472656 45.28125 -56.113281 42.132812 -57.394531 C 38.894531 -58.707031 36.023438 -60.621094 33.511719 -63.128906 C 31.003906 -65.636719 29.089844 -68.511719 27.777344 -71.746094 C 26.496094 -74.898438 25.855469 -78.21875 25.855469 -81.703125 C 25.855469 -85.167969 26.472656 -88.460938 27.699219 -91.578125 C 29.015625 -94.917969 30.953125 -97.867188 33.511719 -100.429688 C 36.023438 -102.9375 38.894531 -104.847656 42.132812 -106.164062 C 45.28125 -107.445312 48.601562 -108.085938 52.089844 -108.085938 L 112.957031 -108.085938 C 111.386719 -108.085938 109.828125 -107.765625 108.277344 -107.132812 C 106.550781 -106.425781 105.058594 -105.417969 103.796875 -104.109375 C 102.675781 -102.945312 101.804688 -101.585938 101.183594 -100.027344 C 100.574219 -98.503906 100.269531 -96.960938 100.269531 -95.394531 L 100.269531 -112.214844 C 100.269531 -110.734375 100.558594 -109.25 101.144531 -107.769531 C 101.816406 -106.066406 102.785156 -104.582031 104.054688 -103.3125 C 105.324219 -102.039062 106.8125 -101.070312 108.511719 -100.398438 C 109.996094 -99.816406 111.476562 -99.523438 112.957031 -99.523438 L 39.4375 -99.523438 C 36.667969 -99.523438 34.335938 -98.980469 32.441406 -97.886719 C 30.542969 -96.796875 29.054688 -95.320312 27.972656 -93.460938 C 26.910156 -91.636719 26.378906 -89.304688 26.378906 -86.464844 L 26.378906 -76.792969 C 26.378906 -74.023438 26.925781 -71.691406 28.015625 -69.796875 C 29.09375 -67.925781 30.570312 -66.449219 32.441406 -65.371094 C 34.335938 -64.28125 36.667969 -63.734375 39.4375 -63.734375 L 74.410156 -63.734375 C 77.964844 -63.734375 81.335938 -63.082031 84.523438 -61.777344 C 87.886719 -60.402344 90.84375 -58.390625 93.394531 -55.742188 C 95.804688 -53.238281 97.644531 -50.402344 98.910156 -47.234375 C 100.164062 -44.097656 100.792969 -40.804688 100.792969 -37.355469 C 100.792969 -33.867188 100.152344 -30.550781 98.871094 -27.398438 C 97.558594 -24.160156 95.644531 -21.289062 93.136719 -18.78125 C 90.574219 -16.21875 87.625 -14.28125 84.289062 -12.964844 C 81.167969 -11.738281 77.875 -11.125 74.410156 -11.125 L 13.691406 -11.125 C 15.257812 -11.125 16.800781 -11.429688 18.324219 -12.035156 C 19.878906 -12.660156 21.242188 -13.53125 22.40625 -14.652344 C 23.714844 -15.914062 24.722656 -17.40625 25.429688 -19.132812 C 26.0625 -20.683594 26.378906 -22.242188 26.378906 -23.8125 L 26.378906 -6.847656 C 26.378906 -8.5 26.050781 -10.125 25.386719 -11.714844 C 24.730469 -13.296875 23.824219 -14.664062 22.667969 -15.820312 C 21.511719 -16.980469 20.140625 -17.886719 18.5625 -18.542969 C 16.96875 -19.203125 15.347656 -19.535156 13.691406 -19.535156 Z M 13.691406 -19.535156 "/></g></g></g><g fill="#ffffff" fill-opacity="1"><g transform="translate(142.032093, 148.65586)"><g><path d="M 13.691406 19.535156 C 10.152344 19.535156 6.78125 18.867188 3.574219 17.539062 C 0.382812 16.210938 -2.460938 14.300781 -4.957031 11.804688 C -7.453125 9.308594 -9.367188 6.460938 -10.691406 3.269531 C -12.023438 0.0664062 -12.6875 -3.304688 -12.6875 -6.847656 L -12.6875 -112.214844 C -12.6875 -115.765625 -12.035156 -119.136719 -10.730469 -122.324219 C -9.355469 -125.6875 -7.34375 -128.644531 -4.695312 -131.195312 C -2.191406 -133.605469 0.644531 -135.445312 3.8125 -136.710938 C 6.949219 -137.964844 10.242188 -138.59375 13.691406 -138.59375 L 38.546875 -138.59375 C 42.011719 -138.59375 45.300781 -137.980469 48.421875 -136.75 C 51.757812 -135.433594 54.710938 -133.496094 57.269531 -130.9375 C 59.828125 -128.375 61.765625 -125.425781 63.082031 -122.089844 C 64.3125 -118.96875 64.925781 -115.675781 64.925781 -112.214844 L 64.925781 -83.488281 C 64.925781 -85.089844 64.609375 -86.675781 63.972656 -88.238281 C 63.304688 -89.886719 62.359375 -91.320312 61.140625 -92.539062 C 59.917969 -93.761719 58.484375 -94.703125 56.835938 -95.375 C 55.273438 -96.007812 53.691406 -96.328125 52.089844 -96.328125 C 50.609375 -96.328125 49.125 -96.035156 47.644531 -95.453125 C 45.941406 -94.78125 44.457031 -93.8125 43.1875 -92.539062 C 41.96875 -91.320312 41.023438 -89.886719 40.351562 -88.238281 C 39.71875 -86.675781 39.398438 -85.089844 39.398438 -83.488281 L 39.398438 -112.214844 C 39.398438 -115.765625 40.050781 -119.136719 41.355469 -122.324219 C 42.730469 -125.6875 44.746094 -128.644531 47.394531 -131.195312 C 49.898438 -133.605469 52.734375 -135.445312 55.902344 -136.710938 C 59.035156 -137.964844 62.328125 -138.59375 65.78125 -138.59375 L 90.632812 -138.59375 C 94.097656 -138.59375 97.390625 -137.980469 100.507812 -136.75 C 103.847656 -135.433594 106.796875 -133.496094 109.359375 -130.9375 C 111.917969 -128.375 113.855469 -125.425781 115.171875 -122.089844 C 116.398438 -118.96875 117.015625 -115.675781 117.015625 -112.214844 L 117.015625 -95.695312 C 117.015625 -90.007812 115.722656 -84.707031 113.144531 -79.785156 L 95.84375 -88.847656 L 113.921875 -81.445312 L 103.285156 -55.464844 L 103.035156 -54.945312 C 103.722656 -56.378906 104.066406 -57.941406 104.066406 -59.640625 C 104.066406 -61.234375 103.765625 -62.6875 103.160156 -63.996094 L 103.339844 -63.605469 L 113.921875 -37.761719 L 95.84375 -30.359375 L 113.3125 -39.097656 C 115.78125 -34.164062 117.015625 -28.921875 117.015625 -23.367188 L 117.015625 -6.847656 C 117.015625 -3.394531 116.386719 -0.101562 115.132812 3.03125 C 113.863281 6.203125 112.027344 9.039062 109.617188 11.539062 C 107.066406 14.191406 104.109375 16.203125 100.746094 17.578125 C 97.558594 18.882812 94.1875 19.535156 90.632812 19.535156 L 65.78125 19.535156 C 62.242188 19.535156 58.867188 18.867188 55.664062 17.539062 C 52.472656 16.210938 49.628906 14.300781 47.128906 11.804688 C 44.632812 9.308594 42.722656 6.460938 41.398438 3.269531 C 40.066406 0.0664062 39.398438 -3.304688 39.398438 -6.847656 L 39.398438 -35.570312 C 39.398438 -34.003906 39.703125 -32.460938 40.3125 -30.9375 C 40.9375 -29.378906 41.808594 -28.019531 42.929688 -26.855469 C 44.191406 -25.546875 45.683594 -24.539062 47.40625 -23.832031 C 48.960938 -23.199219 50.519531 -22.878906 52.089844 -22.878906 C 53.691406 -22.878906 55.273438 -23.199219 56.835938 -23.832031 C 58.484375 -24.503906 59.917969 -25.449219 61.140625 -26.667969 C 62.410156 -27.9375 63.378906 -29.421875 64.050781 -31.125 C 64.632812 -32.605469 64.925781 -34.089844 64.925781 -35.570312 L 64.925781 -6.847656 C 64.925781 -3.394531 64.296875 -0.101562 63.042969 3.03125 C 61.777344 6.203125 59.9375 9.039062 57.527344 11.539062 C 54.976562 14.191406 52.019531 16.203125 48.65625 17.578125 C 45.46875 18.882812 42.097656 19.535156 38.546875 19.535156 Z M 13.691406 -19.535156 L 38.546875 -19.535156 C 36.976562 -19.535156 35.417969 -19.21875 33.863281 -18.582031 C 32.140625 -17.875 30.648438 -16.867188 29.386719 -15.558594 C 28.265625 -14.394531 27.394531 -13.035156 26.769531 -11.476562 C 26.160156 -9.957031 25.855469 -8.410156 25.855469 -6.847656 L 25.855469 -35.570312 C 25.855469 -39.035156 26.472656 -42.324219 27.699219 -45.445312 C 29.015625 -48.785156 30.953125 -51.734375 33.511719 -54.292969 C 36.023438 -56.800781 38.894531 -58.714844 42.132812 -60.027344 C 45.28125 -61.308594 48.601562 -61.949219 52.089844 -61.949219 C 55.640625 -61.949219 59.011719 -61.296875 62.199219 -59.992188 C 65.5625 -58.617188 68.519531 -56.605469 71.070312 -53.957031 C 73.480469 -51.453125 75.320312 -48.617188 76.585938 -45.445312 C 77.839844 -42.3125 78.46875 -39.019531 78.46875 -35.570312 L 78.46875 -6.847656 C 78.46875 -8.5 78.136719 -10.125 77.476562 -11.714844 C 76.820312 -13.296875 75.914062 -14.664062 74.757812 -15.820312 C 73.597656 -16.980469 72.230469 -17.886719 70.652344 -18.542969 C 69.058594 -19.203125 67.433594 -19.535156 65.78125 -19.535156 L 90.632812 -19.535156 C 89.066406 -19.535156 87.503906 -19.21875 85.953125 -18.582031 C 84.226562 -17.875 82.734375 -16.867188 81.472656 -15.558594 C 80.351562 -14.394531 79.480469 -13.035156 78.859375 -11.476562 C 78.25 -9.957031 77.945312 -8.410156 77.945312 -6.847656 L 77.945312 -23.367188 C 77.945312 -22.769531 78.085938 -22.191406 78.371094 -21.625 L 78.042969 -22.28125 L 67.347656 -48.410156 L 85.425781 -55.808594 L 67.6875 -47.621094 C 65.894531 -51.507812 64.996094 -55.515625 64.996094 -59.640625 C 64.996094 -63.871094 65.9375 -67.941406 67.8125 -71.851562 L 85.425781 -63.398438 L 67.347656 -70.800781 L 78.113281 -97.097656 L 78.539062 -97.910156 C 78.144531 -97.15625 77.945312 -96.417969 77.945312 -95.695312 L 77.945312 -112.214844 C 77.945312 -110.734375 78.238281 -109.25 78.820312 -107.769531 C 79.492188 -106.066406 80.460938 -104.582031 81.730469 -103.3125 C 83.003906 -102.039062 84.488281 -101.070312 86.191406 -100.398438 C 87.671875 -99.816406 89.152344 -99.523438 90.632812 -99.523438 L 65.78125 -99.523438 C 67.34375 -99.523438 68.890625 -99.828125 70.410156 -100.4375 C 71.96875 -101.0625 73.328125 -101.933594 74.492188 -103.054688 C 75.804688 -104.316406 76.8125 -105.808594 77.515625 -107.53125 C 78.152344 -109.085938 78.46875 -110.644531 78.46875 -112.214844 L 78.46875 -83.488281 C 78.46875 -80.003906 77.828125 -76.683594 76.546875 -73.535156 C 75.234375 -70.296875 73.320312 -67.425781 70.8125 -64.914062 C 68.253906 -62.355469 65.300781 -60.417969 61.964844 -59.101562 C 58.84375 -57.871094 55.554688 -57.257812 52.089844 -57.257812 C 48.601562 -57.257812 45.28125 -57.898438 42.132812 -59.179688 C 38.894531 -60.492188 36.023438 -62.40625 33.511719 -64.914062 C 31.003906 -67.425781 29.089844 -70.296875 27.777344 -73.535156 C 26.496094 -76.683594 25.855469 -80.003906 25.855469 -83.488281 L 25.855469 -112.214844 C 25.855469 -110.734375 26.148438 -109.25 26.734375 -107.769531 C 27.402344 -106.066406 28.375 -104.582031 29.644531 -103.3125 C 30.914062 -102.039062 32.398438 -101.070312 34.101562 -100.398438 C 35.582031 -99.816406 37.066406 -99.523438 38.546875 -99.523438 L 13.691406 -99.523438 C 15.257812 -99.523438 16.800781 -99.828125 18.324219 -100.4375 C 19.878906 -101.0625 21.242188 -101.933594 22.40625 -103.054688 C 23.714844 -104.316406 24.722656 -105.808594 25.429688 -107.53125 C 26.0625 -109.085938 26.378906 -110.644531 26.378906 -112.214844 L 26.378906 -6.847656 C 26.378906 -8.5 26.050781 -10.125 25.386719 -11.714844 C 24.730469 -13.296875 23.824219 -14.664062 22.667969 -15.820312 C 21.511719 -16.980469 20.140625 -17.886719 18.5625 -18.542969 C 16.96875 -19.203125 15.347656 -19.535156 13.691406 -19.535156 Z M 13.691406 -19.535156 "/></g></g></g><g fill="#ffffff" fill-opacity="1"><g transform="translate(246.353508, 148.65586)"><g><path d="M 13.691406 19.535156 C 10.152344 19.535156 6.78125 18.867188 3.574219 17.539062 C 0.382812 16.210938 -2.460938 14.300781 -4.957031 11.804688 C -7.453125 9.308594 -9.367188 6.460938 -10.691406 3.269531 C -12.023438 0.0664062 -12.6875 -3.304688 -12.6875 -6.847656 L -12.6875 -112.214844 C -12.6875 -115.765625 -12.035156 -119.136719 -10.730469 -122.324219 C -9.355469 -125.6875 -7.34375 -128.644531 -4.695312 -131.195312 C -2.191406 -133.605469 0.644531 -135.445312 3.8125 -136.710938 C 6.949219 -137.964844 10.242188 -138.59375 13.691406 -138.59375 L 38.546875 -138.59375 C 42.011719 -138.59375 45.300781 -137.980469 48.421875 -136.75 C 51.757812 -135.433594 54.710938 -133.496094 57.269531 -130.9375 C 59.828125 -128.375 61.765625 -125.425781 63.082031 -122.089844 C 64.3125 -118.96875 64.925781 -115.675781 64.925781 -112.214844 L 64.925781 -6.847656 C 64.925781 -3.394531 64.296875 -0.101562 63.042969 3.03125 C 61.777344 6.203125 59.9375 9.039062 57.527344 11.539062 C 54.976562 14.191406 52.019531 16.203125 48.65625 17.578125 C 45.46875 18.882812 42.097656 19.535156 38.546875 19.535156 Z M 13.691406 -19.535156 L 38.546875 -19.535156 C 36.976562 -19.535156 35.417969 -19.21875 33.863281 -18.582031 C 32.140625 -17.875 30.648438 -16.867188 29.386719 -15.558594 C 28.265625 -14.394531 27.394531 -13.035156 26.769531 -11.476562 C 26.160156 -9.957031 25.855469 -8.410156 25.855469 -6.847656 L 25.855469 -112.214844 C 25.855469 -110.734375 26.148438 -109.25 26.734375 -107.769531 C 27.402344 -106.066406 28.375 -104.582031 29.644531 -103.3125 C 30.914062 -102.039062 32.398438 -101.070312 34.101562 -100.398438 C 35.582031 -99.816406 37.066406 -99.523438 38.546875 -99.523438 L 13.691406 -99.523438 C 15.257812 -99.523438 16.800781 -99.828125 18.324219 -100.4375 C 19.878906 -101.0625 21.242188 -101.933594 22.40625 -103.054688 C 23.714844 -104.316406 24.722656 -105.808594 25.429688 -107.53125 C 26.0625 -109.085938 26.378906 -110.644531 26.378906 -112.214844 L 26.378906 -6.847656 C 26.378906 -8.5 26.050781 -10.125 25.386719 -11.714844 C 24.730469 -13.296875 23.824219 -14.664062 22.667969 -15.820312 C 21.511719 -16.980469 20.140625 -17.886719 18.5625 -18.542969 C 16.96875 -19.203125 15.347656 -19.535156 13.691406 -19.535156 Z M 13.691406 -19.535156 "/></g></g></g><g fill="#ffffff" fill-opacity="1"><g transform="translate(298.588627, 148.65586)"><g><path d="M 13.691406 19.535156 C 10.152344 19.535156 6.78125 18.867188 3.574219 17.539062 C 0.382812 16.210938 -2.460938 14.300781 -4.957031 11.804688 C -7.453125 9.308594 -9.367188 6.460938 -10.691406 3.269531 C -12.023438 0.0664062 -12.6875 -3.304688 -12.6875 -6.847656 L -12.6875 -112.214844 C -12.6875 -115.765625 -12.035156 -119.136719 -10.730469 -122.324219 C -9.355469 -125.6875 -7.34375 -128.644531 -4.695312 -131.195312 C -2.191406 -133.605469 0.644531 -135.445312 3.8125 -136.710938 C 6.949219 -137.964844 10.242188 -138.59375 13.691406 -138.59375 L 38.546875 -138.59375 C 42.011719 -138.59375 45.300781 -137.980469 48.421875 -136.75 C 51.757812 -135.433594 54.710938 -133.496094 57.269531 -130.9375 C 59.828125 -128.375 61.765625 -125.425781 63.082031 -122.089844 C 64.3125 -118.96875 64.925781 -115.675781 64.925781 -112.214844 L 64.925781 -40.332031 C 64.925781 -42.023438 64.582031 -43.6875 63.890625 -45.320312 C 63.1875 -46.988281 62.207031 -48.429688 60.949219 -49.640625 C 59.785156 -50.761719 58.425781 -51.632812 56.867188 -52.253906 C 55.347656 -52.863281 53.800781 -53.167969 52.238281 -53.167969 L 83.191406 -53.167969 C 86.65625 -53.167969 89.949219 -52.554688 93.066406 -51.324219 C 96.40625 -50.011719 99.355469 -48.074219 101.917969 -45.511719 C 104.476562 -42.953125 106.414062 -40.003906 107.730469 -36.664062 C 108.957031 -33.546875 109.574219 -30.253906 109.574219 -26.789062 L 109.574219 -6.847656 C 109.574219 -3.394531 108.945312 -0.101562 107.691406 3.03125 C 106.425781 6.203125 104.585938 9.039062 102.175781 11.539062 C 99.625 14.191406 96.667969 16.203125 93.304688 17.578125 C 90.117188 18.882812 86.746094 19.535156 83.191406 19.535156 Z M 13.691406 -19.535156 L 83.191406 -19.535156 C 81.625 -19.535156 80.0625 -19.21875 78.511719 -18.582031 C 76.785156 -17.875 75.292969 -16.867188 74.03125 -15.558594 C 72.910156 -14.394531 72.039062 -13.035156 71.417969 -11.476562 C 70.808594 -9.957031 70.503906 -8.410156 70.503906 -6.847656 L 70.503906 -26.789062 C 70.503906 -25.308594 70.796875 -23.828125 71.378906 -22.34375 C 72.050781 -20.644531 73.019531 -19.15625 74.289062 -17.886719 C 75.5625 -16.617188 77.046875 -15.644531 78.75 -14.976562 C 80.230469 -14.390625 81.710938 -14.101562 83.191406 -14.101562 L 52.238281 -14.101562 C 48.785156 -14.101562 45.492188 -14.726562 42.359375 -15.980469 C 39.191406 -17.25 36.355469 -19.085938 33.851562 -21.496094 C 31.253906 -23.996094 29.269531 -26.875 27.894531 -30.132812 C 26.535156 -33.355469 25.855469 -36.753906 25.855469 -40.332031 L 25.855469 -112.214844 C 25.855469 -110.734375 26.148438 -109.25 26.734375 -107.769531 C 27.402344 -106.066406 28.375 -104.582031 29.644531 -103.3125 C 30.914062 -102.039062 32.398438 -101.070312 34.101562 -100.398438 C 35.582031 -99.816406 37.066406 -99.523438 38.546875 -99.523438 L 13.691406 -99.523438 C 15.257812 -99.523438 16.800781 -99.828125 18.324219 -100.4375 C 19.878906 -101.0625 21.242188 -101.933594 22.40625 -103.054688 C 23.714844 -104.316406 24.722656 -105.808594 25.429688 -107.53125 C 26.0625 -109.085938 26.378906 -110.644531 26.378906 -112.214844 L 26.378906 -6.847656 C 26.378906 -8.5 26.050781 -10.125 25.386719 -11.714844 C 24.730469 -13.296875 23.824219 -14.664062 22.667969 -15.820312 C 21.511719 -16.980469 20.140625 -17.886719 18.5625 -18.542969 C 16.96875 -19.203125 15.347656 -19.535156 13.691406 -19.535156 Z M 13.691406 -19.535156 "/></g></g></g><g fill="#ffffff" fill-opacity="1"><g transform="translate(395.469155, 148.65586)"><g><path d="M 13.691406 19.535156 C 10.152344 19.535156 6.78125 18.867188 3.574219 17.539062 C 0.382812 16.210938 -2.460938 14.300781 -4.957031 11.804688 C -7.453125 9.308594 -9.367188 6.460938 -10.691406 3.269531 C -12.023438 0.0664062 -12.6875 -3.304688 -12.6875 -6.847656 L -12.6875 -112.214844 C -12.6875 -115.765625 -12.035156 -119.136719 -10.730469 -122.324219 C -9.355469 -125.6875 -7.34375 -128.644531 -4.695312 -131.195312 C -2.191406 -133.605469 0.644531 -135.445312 3.8125 -136.710938 C 6.949219 -137.964844 10.242188 -138.59375 13.691406 -138.59375 L 38.546875 -138.59375 C 42.011719 -138.59375 45.300781 -137.980469 48.421875 -136.75 C 51.757812 -135.433594 54.710938 -133.496094 57.269531 -130.9375 C 59.828125 -128.375 61.765625 -125.425781 63.082031 -122.089844 C 64.3125 -118.96875 64.925781 -115.675781 64.925781 -112.214844 L 64.925781 -40.332031 C 64.925781 -42.023438 64.582031 -43.6875 63.890625 -45.320312 C 63.1875 -46.988281 62.207031 -48.429688 60.949219 -49.640625 C 59.785156 -50.761719 58.425781 -51.632812 56.867188 -52.253906 C 55.347656 -52.863281 53.800781 -53.167969 52.238281 -53.167969 L 83.191406 -53.167969 C 86.65625 -53.167969 89.949219 -52.554688 93.066406 -51.324219 C 96.40625 -50.011719 99.355469 -48.074219 101.917969 -45.511719 C 104.476562 -42.953125 106.414062 -40.003906 107.730469 -36.664062 C 108.957031 -33.546875 109.574219 -30.253906 109.574219 -26.789062 L 109.574219 -6.847656 C 109.574219 -3.394531 108.945312 -0.101562 107.691406 3.03125 C 106.425781 6.203125 104.585938 9.039062 102.175781 11.539062 C 99.625 14.191406 96.667969 16.203125 93.304688 17.578125 C 90.117188 18.882812 86.746094 19.535156 83.191406 19.535156 Z M 13.691406 -19.535156 L 83.191406 -19.535156 C 81.625 -19.535156 80.0625 -19.21875 78.511719 -18.582031 C 76.785156 -17.875 75.292969 -16.867188 74.03125 -15.558594 C 72.910156 -14.394531 72.039062 -13.035156 71.417969 -11.476562 C 70.808594 -9.957031 70.503906 -8.410156 70.503906 -6.847656 L 70.503906 -26.789062 C 70.503906 -25.308594 70.796875 -23.828125 71.378906 -22.34375 C 72.050781 -20.644531 73.019531 -19.15625 74.289062 -17.886719 C 75.5625 -16.617188 77.046875 -15.644531 78.75 -14.976562 C 80.230469 -14.390625 81.710938 -14.101562 83.191406 -14.101562 L 52.238281 -14.101562 C 48.785156 -14.101562 45.492188 -14.726562 42.359375 -15.980469 C 39.191406 -17.25 36.355469 -19.085938 33.851562 -21.496094 C 31.253906 -23.996094 29.269531 -26.875 27.894531 -30.132812 C 26.535156 -33.355469 25.855469 -36.753906 25.855469 -40.332031 L 25.855469 -112.214844 C 25.855469 -110.734375 26.148438 -109.25 26.734375 -107.769531 C 27.402344 -106.066406 28.375 -104.582031 29.644531 -103.3125 C 30.914062 -102.039062 32.398438 -101.070312 34.101562 -100.398438 C 35.582031 -99.816406 37.066406 -99.523438 38.546875 -99.523438 L 13.691406 -99.523438 C 15.257812 -99.523438 16.800781 -99.828125 18.324219 -100.4375 C 19.878906 -101.0625 21.242188 -101.933594 22.40625 -103.054688 C 23.714844 -104.316406 24.722656 -105.808594 25.429688 -107.53125 C 26.0625 -109.085938 26.378906 -110.644531 26.378906 -112.214844 L 26.378906 -6.847656 C 26.378906 -8.5 26.050781 -10.125 25.386719 -11.714844 C 24.730469 -13.296875 23.824219 -14.664062 22.667969 -15.820312 C 21.511719 -16.980469 20.140625 -17.886719 18.5625 -18.542969 C 16.96875 -19.203125 15.347656 -19.535156 13.691406 -19.535156 Z M 13.691406 -19.535156 "/></g></g></g><g fill="#000000" fill-opacity="1"><g transform="translate(15.387975, 148.65586)"><g><path d="M 13.6875 0 C 11.800781 0 10.1875 -0.664062 8.84375 -2 C 7.507812 -3.34375 6.84375 -4.957031 6.84375 -6.84375 L 6.84375 -23.8125 C 6.84375 -25.789062 7.507812 -27.425781 8.84375 -28.71875 C 10.1875 -30.007812 11.800781 -30.65625 13.6875 -30.65625 L 74.40625 -30.65625 C 76.394531 -30.65625 78.035156 -31.300781 79.328125 -32.59375 C 80.617188 -33.882812 81.265625 -35.472656 81.265625 -37.359375 C 81.265625 -39.242188 80.617188 -40.851562 79.328125 -42.1875 C 78.035156 -43.53125 76.394531 -44.203125 74.40625 -44.203125 L 39.4375 -44.203125 C 33.1875 -44.203125 27.601562 -45.613281 22.6875 -48.4375 C 17.78125 -51.269531 13.910156 -55.140625 11.078125 -60.046875 C 8.253906 -64.960938 6.84375 -70.546875 6.84375 -76.796875 L 6.84375 -86.46875 C 6.84375 -92.820312 8.253906 -98.425781 11.078125 -103.28125 C 13.910156 -108.144531 17.78125 -111.988281 22.6875 -114.8125 C 27.601562 -117.644531 33.1875 -119.0625 39.4375 -119.0625 L 112.953125 -119.0625 C 114.941406 -119.0625 116.582031 -118.414062 117.875 -117.125 C 119.164062 -115.832031 119.8125 -114.195312 119.8125 -112.21875 L 119.8125 -95.40625 C 119.8125 -93.519531 119.164062 -91.90625 117.875 -90.5625 C 116.582031 -89.21875 114.941406 -88.546875 112.953125 -88.546875 L 52.09375 -88.546875 C 50.207031 -88.546875 48.617188 -87.898438 47.328125 -86.609375 C 46.035156 -85.328125 45.390625 -83.691406 45.390625 -81.703125 C 45.390625 -79.816406 46.035156 -78.226562 47.328125 -76.9375 C 48.617188 -75.65625 50.207031 -75.015625 52.09375 -75.015625 L 87.21875 -75.015625 C 93.5625 -75.015625 99.164062 -73.597656 104.03125 -70.765625 C 108.894531 -67.941406 112.738281 -64.097656 115.5625 -59.234375 C 118.394531 -54.367188 119.8125 -48.765625 119.8125 -42.421875 L 119.8125 -32.734375 C 119.8125 -26.484375 118.394531 -20.878906 115.5625 -15.921875 C 112.738281 -10.960938 108.894531 -7.066406 104.03125 -4.234375 C 99.164062 -1.410156 93.5625 0 87.21875 0 Z M 13.6875 0 "/></g></g></g><g fill="#000000" fill-opacity="1"><g transform="translate(142.032093, 148.65586)"><g><path d="M 13.6875 0 C 11.800781 0 10.1875 -0.664062 8.84375 -2 C 7.507812 -3.34375 6.84375 -4.957031 6.84375 -6.84375 L 6.84375 -112.21875 C 6.84375 -114.195312 7.507812 -115.832031 8.84375 -117.125 C 10.1875 -118.414062 11.800781 -119.0625 13.6875 -119.0625 L 38.546875 -119.0625 C 40.523438 -119.0625 42.160156 -118.414062 43.453125 -117.125 C 44.742188 -115.832031 45.390625 -114.195312 45.390625 -112.21875 L 45.390625 -83.5 C 45.390625 -81.613281 46.035156 -80.023438 47.328125 -78.734375 C 48.617188 -77.441406 50.207031 -76.796875 52.09375 -76.796875 C 54.070312 -76.796875 55.707031 -77.441406 57 -78.734375 C 58.289062 -80.023438 58.9375 -81.613281 58.9375 -83.5 L 58.9375 -112.21875 C 58.9375 -114.195312 59.601562 -115.832031 60.9375 -117.125 C 62.28125 -118.414062 63.894531 -119.0625 65.78125 -119.0625 L 90.640625 -119.0625 C 92.617188 -119.0625 94.253906 -118.414062 95.546875 -117.125 C 96.835938 -115.832031 97.484375 -114.195312 97.484375 -112.21875 L 97.484375 -95.703125 C 97.484375 -93.210938 96.9375 -90.925781 95.84375 -88.84375 L 85.421875 -63.40625 C 84.234375 -60.925781 84.234375 -58.394531 85.421875 -55.8125 L 95.84375 -30.359375 C 96.9375 -28.179688 97.484375 -25.847656 97.484375 -23.359375 L 97.484375 -6.84375 C 97.484375 -4.957031 96.835938 -3.34375 95.546875 -2 C 94.253906 -0.664062 92.617188 0 90.640625 0 L 65.78125 0 C 63.894531 0 62.28125 -0.664062 60.9375 -2 C 59.601562 -3.34375 58.9375 -4.957031 58.9375 -6.84375 L 58.9375 -35.5625 C 58.9375 -37.445312 58.289062 -39.0625 57 -40.40625 C 55.707031 -41.75 54.070312 -42.421875 52.09375 -42.421875 C 50.207031 -42.421875 48.617188 -41.773438 47.328125 -40.484375 C 46.035156 -39.191406 45.390625 -37.550781 45.390625 -35.5625 L 45.390625 -6.84375 C 45.390625 -4.957031 44.742188 -3.34375 43.453125 -2 C 42.160156 -0.664062 40.523438 0 38.546875 0 Z M 13.6875 0 "/></g></g></g><g fill="#000000" fill-opacity="1"><g transform="translate(246.353508, 148.65586)"><g><path d="M 13.6875 0 C 11.800781 0 10.1875 -0.664062 8.84375 -2 C 7.507812 -3.34375 6.84375 -4.957031 6.84375 -6.84375 L 6.84375 -112.21875 C 6.84375 -114.195312 7.507812 -115.832031 8.84375 -117.125 C 10.1875 -118.414062 11.800781 -119.0625 13.6875 -119.0625 L 38.546875 -119.0625 C 40.523438 -119.0625 42.160156 -118.414062 43.453125 -117.125 C 44.742188 -115.832031 45.390625 -114.195312 45.390625 -112.21875 L 45.390625 -6.84375 C 45.390625 -4.957031 44.742188 -3.34375 43.453125 -2 C 42.160156 -0.664062 40.523438 0 38.546875 0 Z M 13.6875 0 "/></g></g></g><g fill="#000000" fill-opacity="1"><g transform="translate(298.588627, 148.65586)"><g><path d="M 13.6875 0 C 11.800781 0 10.1875 -0.664062 8.84375 -2 C 7.507812 -3.34375 6.84375 -4.957031 6.84375 -6.84375 L 6.84375 -112.21875 C 6.84375 -114.195312 7.507812 -115.832031 8.84375 -117.125 C 10.1875 -118.414062 11.800781 -119.0625 13.6875 -119.0625 L 38.546875 -119.0625 C 40.523438 -119.0625 42.160156 -118.414062 43.453125 -117.125 C 44.742188 -115.832031 45.390625 -114.195312 45.390625 -112.21875 L 45.390625 -40.328125 C 45.390625 -38.441406 46.054688 -36.851562 47.390625 -35.5625 C 48.734375 -34.28125 50.347656 -33.640625 52.234375 -33.640625 L 83.1875 -33.640625 C 85.175781 -33.640625 86.816406 -32.992188 88.109375 -31.703125 C 89.398438 -30.410156 90.046875 -28.769531 90.046875 -26.78125 L 90.046875 -6.84375 C 90.046875 -4.957031 89.398438 -3.34375 88.109375 -2 C 86.816406 -0.664062 85.175781 0 83.1875 0 Z M 13.6875 0 "/></g></g></g><g fill="#000000" fill-opacity="1"><g transform="translate(395.469155, 148.65586)"><g><path d="M 13.6875 0 C 11.800781 0 10.1875 -0.664062 8.84375 -2 C 7.507812 -3.34375 6.84375 -4.957031 6.84375 -6.84375 L 6.84375 -112.21875 C 6.84375 -114.195312 7.507812 -115.832031 8.84375 -117.125 C 10.1875 -118.414062 11.800781 -119.0625 13.6875 -119.0625 L 38.546875 -119.0625 C 40.523438 -119.0625 42.160156 -118.414062 43.453125 -117.125 C 44.742188 -115.832031 45.390625 -114.195312 45.390625 -112.21875 L 45.390625 -40.328125 C 45.390625 -38.441406 46.054688 -36.851562 47.390625 -35.5625 C 48.734375 -34.28125 50.347656 -33.640625 52.234375 -33.640625 L 83.1875 -33.640625 C 85.175781 -33.640625 86.816406 -32.992188 88.109375 -31.703125 C 89.398438 -30.410156 90.046875 -28.769531 90.046875 -26.78125 L 90.046875 -6.84375 C 90.046875 -4.957031 89.398438 -3.34375 88.109375 -2 C 86.816406 -0.664062 85.175781 0 83.1875 0 Z M 13.6875 0 "/></g></g></g></g></g><g transform="matrix(1, 0, 0, 1, 322, 459)"><g clip-path="url(#9321502fbd)"><g fill="#ff6200" fill-opacity="1"><g transform="translate(1.836708, 57.939885)"><g><path d="M 6.625 0.515625 C 5.488281 0.515625 4.582031 0.210938 3.90625 -0.390625 C 3.226562 -0.992188 2.890625 -1.828125 2.890625 -2.890625 L 2.890625 -22.6875 C 2.890625 -28.15625 4.453125 -32.4375 7.578125 -35.53125 C 10.710938 -38.625 15.070312 -40.171875 20.65625 -40.171875 C 24.3125 -40.171875 27.476562 -39.472656 30.15625 -38.078125 C 32.832031 -36.679688 34.878906 -34.660156 36.296875 -32.015625 C 37.710938 -29.378906 38.421875 -26.269531 38.421875 -22.6875 L 38.421875 -2.890625 C 38.421875 -1.828125 38.078125 -0.992188 37.390625 -0.390625 C 36.710938 0.210938 35.8125 0.515625 34.6875 0.515625 C 33.550781 0.515625 32.632812 0.203125 31.9375 -0.421875 C 31.238281 -1.046875 30.890625 -1.867188 30.890625 -2.890625 L 30.890625 -12.109375 L 10.40625 -12.109375 L 10.40625 -2.890625 C 10.40625 -1.867188 10.054688 -1.046875 9.359375 -0.421875 C 8.660156 0.203125 7.75 0.515625 6.625 0.515625 Z M 30.890625 -17.9375 L 30.890625 -22.859375 C 30.890625 -26.628906 30.03125 -29.46875 28.3125 -31.375 C 26.601562 -33.28125 24.050781 -34.234375 20.65625 -34.234375 C 13.820312 -34.234375 10.40625 -30.441406 10.40625 -22.859375 L 10.40625 -17.9375 Z M 30.890625 -17.9375 "/></g></g></g><g fill="#ff6200" fill-opacity="1"><g transform="translate(43.141092, 57.939885)"><g><path d="M 3.171875 -31.234375 C 3.171875 -33.867188 3.929688 -35.921875 5.453125 -37.390625 C 6.984375 -38.867188 9.109375 -39.609375 11.828125 -39.609375 L 21.890625 -39.609375 C 27.515625 -39.609375 31.757812 -38.515625 34.625 -36.328125 C 37.488281 -34.140625 38.921875 -30.875 38.921875 -26.53125 C 38.921875 -22.5 37.722656 -19.347656 35.328125 -17.078125 C 32.929688 -14.816406 29.71875 -13.6875 25.6875 -13.6875 L 34.28125 -5.15625 C 34.96875 -4.46875 35.3125 -3.691406 35.3125 -2.828125 C 35.3125 -1.921875 34.910156 -1.128906 34.109375 -0.453125 C 33.285156 0.191406 32.476562 0.515625 31.6875 0.515625 C 30.59375 0.515625 29.59375 0.0195312 28.6875 -0.96875 L 16.46875 -13.46875 L 10.6875 -13.46875 L 10.6875 -2.828125 C 10.6875 -1.773438 10.328125 -0.945312 9.609375 -0.34375 C 8.898438 0.257812 8 0.5625 6.90625 0.5625 C 5.769531 0.5625 4.863281 0.257812 4.1875 -0.34375 C 3.507812 -0.945312 3.171875 -1.773438 3.171875 -2.828125 Z M 21.671875 -19.296875 C 24.160156 -19.296875 26.101562 -19.539062 27.5 -20.03125 C 28.894531 -20.519531 29.882812 -21.28125 30.46875 -22.3125 C 31.050781 -23.351562 31.34375 -24.757812 31.34375 -26.53125 C 31.34375 -29.09375 30.554688 -30.941406 28.984375 -32.078125 C 27.421875 -33.210938 24.984375 -33.78125 21.671875 -33.78125 L 13.125 -33.78125 C 12.375 -33.78125 11.78125 -33.535156 11.34375 -33.046875 C 10.90625 -32.554688 10.6875 -31.875 10.6875 -31 L 10.6875 -19.296875 Z M 21.671875 -19.296875 "/></g></g></g><g fill="#ff6200" fill-opacity="1"><g transform="translate(84.671833, 57.939885)"><g><path d="M 12.21875 0 C 9.351562 0 7.128906 -0.753906 5.546875 -2.265625 C 3.960938 -3.773438 3.171875 -5.882812 3.171875 -8.59375 L 3.171875 -31.234375 C 3.171875 -33.867188 3.929688 -35.921875 5.453125 -37.390625 C 6.984375 -38.867188 9.109375 -39.609375 11.828125 -39.609375 L 29.421875 -39.609375 C 30.554688 -39.609375 31.421875 -39.351562 32.015625 -38.84375 C 32.617188 -38.332031 32.921875 -37.601562 32.921875 -36.65625 C 32.921875 -35.757812 32.609375 -35.054688 31.984375 -34.546875 C 31.367188 -34.035156 30.515625 -33.78125 29.421875 -33.78125 L 13.125 -33.78125 C 12.375 -33.78125 11.78125 -33.535156 11.34375 -33.046875 C 10.90625 -32.554688 10.6875 -31.875 10.6875 -31 L 10.6875 -23.140625 L 25.125 -23.140625 C 26.25 -23.140625 27.113281 -22.882812 27.71875 -22.375 C 28.320312 -21.863281 28.625 -21.140625 28.625 -20.203125 C 28.625 -19.296875 28.3125 -18.585938 27.6875 -18.078125 C 27.070312 -17.566406 26.21875 -17.3125 25.125 -17.3125 L 10.6875 -17.3125 L 10.6875 -8.59375 C 10.6875 -7.726562 10.90625 -7.050781 11.34375 -6.5625 C 11.78125 -6.070312 12.375 -5.828125 13.125 -5.828125 L 30.671875 -5.828125 C 31.796875 -5.828125 32.660156 -5.570312 33.265625 -5.0625 C 33.867188 -4.550781 34.171875 -3.828125 34.171875 -2.890625 C 34.171875 -1.984375 33.859375 -1.273438 33.234375 -0.765625 C 32.617188 -0.253906 31.765625 0 30.671875 0 Z M 12.21875 0 "/></g></g></g><g fill="#ff6200" fill-opacity="1"><g transform="translate(121.449708, 57.939885)"><g><path d="M 6.625 0.5625 C 5.488281 0.5625 4.582031 0.257812 3.90625 -0.34375 C 3.226562 -0.945312 2.890625 -1.773438 2.890625 -2.828125 L 2.890625 -24.15625 C 2.890625 -29.175781 4.453125 -33.097656 7.578125 -35.921875 C 10.710938 -38.753906 15.050781 -40.171875 20.59375 -40.171875 C 26.132812 -40.171875 30.46875 -38.753906 33.59375 -35.921875 C 36.726562 -33.097656 38.296875 -29.175781 38.296875 -24.15625 L 38.296875 -2.828125 C 38.296875 -1.773438 37.957031 -0.945312 37.28125 -0.34375 C 36.601562 0.257812 35.695312 0.5625 34.5625 0.5625 C 33.4375 0.5625 32.523438 0.253906 31.828125 -0.359375 C 31.128906 -0.984375 30.78125 -1.804688 30.78125 -2.828125 L 30.78125 -24.328125 C 30.78125 -27.535156 29.910156 -29.988281 28.171875 -31.6875 C 26.441406 -33.382812 23.914062 -34.234375 20.59375 -34.234375 C 17.269531 -34.234375 14.738281 -33.382812 13 -31.6875 C 11.269531 -29.988281 10.40625 -27.535156 10.40625 -24.328125 L 10.40625 -2.828125 C 10.40625 -1.804688 10.054688 -0.984375 9.359375 -0.359375 C 8.660156 0.253906 7.75 0.5625 6.625 0.5625 Z M 6.625 0.5625 "/></g></g></g><g fill="#ff6200" fill-opacity="1"><g transform="translate(162.640945, 57.939885)"><g><path d="M 6.625 0.515625 C 5.488281 0.515625 4.582031 0.210938 3.90625 -0.390625 C 3.226562 -0.992188 2.890625 -1.828125 2.890625 -2.890625 L 2.890625 -22.6875 C 2.890625 -28.15625 4.453125 -32.4375 7.578125 -35.53125 C 10.710938 -38.625 15.070312 -40.171875 20.65625 -40.171875 C 24.3125 -40.171875 27.476562 -39.472656 30.15625 -38.078125 C 32.832031 -36.679688 34.878906 -34.660156 36.296875 -32.015625 C 37.710938 -29.378906 38.421875 -26.269531 38.421875 -22.6875 L 38.421875 -2.890625 C 38.421875 -1.828125 38.078125 -0.992188 37.390625 -0.390625 C 36.710938 0.210938 35.8125 0.515625 34.6875 0.515625 C 33.550781 0.515625 32.632812 0.203125 31.9375 -0.421875 C 31.238281 -1.046875 30.890625 -1.867188 30.890625 -2.890625 L 30.890625 -12.109375 L 10.40625 -12.109375 L 10.40625 -2.890625 C 10.40625 -1.867188 10.054688 -1.046875 9.359375 -0.421875 C 8.660156 0.203125 7.75 0.515625 6.625 0.515625 Z M 30.890625 -17.9375 L 30.890625 -22.859375 C 30.890625 -26.628906 30.03125 -29.46875 28.3125 -31.375 C 26.601562 -33.28125 24.050781 -34.234375 20.65625 -34.234375 C 13.820312 -34.234375 10.40625 -30.441406 10.40625 -22.859375 L 10.40625 -17.9375 Z M 30.890625 -17.9375 "/></g></g></g></g></g></svg>